<svg width="16" height="16" xmlns="http://www.w3.org/2000/svg" version="1.1">
 <desc codePlatform="0" snapToGrid="no" showGrid="no" gridStep="20" version="4.6" iVinci="yes"/>

 <g>
  <title>Layer 1</title>
  <g name="Layer 2" id="Layer1">
   <g id="Shape1">
    <desc fill="#e03131" locked="0" pers-end="0,0" pers-start="0,0" pers-size="0,0" pers-center="0,0" blurRadius="4" blurEnabled="0" shadowOpacity="160" shadowBlur="4" shadowOffsetY="2" shadowOffsetX="0" shadowEnabled="0" markerEnd="0" markerStart="0" strokeStyle="0" font-alignment="1" font-underline="0" font-bold="0" font-pixelSize="20" font-familyName="Helvetica" bounding="rect(-243.999,-243.999,487.998,487.998)" basicInfo-starPoints="5" basicInfo-polygonSides="6" basicInfo-roundedRectRadius="12" basicInfo-basicType="0" type="0" shapeID="1"/>
    <path fill="#e03131" fill-rule="evenodd" d="m0,8.00003c0,-4.42625 3.57378,-8.00003 8.00002,-8.00003c4.42618,0 7.99998,3.57378 7.99998,8.00003c0,4.42617 -3.5738,7.99997 -7.99998,7.99997c-4.42624,0 -8.00002,-3.5738 -8.00002,-7.99997m10.2132,0.2295l2.213,-2.21312c0.3115,-0.29508 0.3115,-0.80328 0,-1.09836l-1.0983,-1.11476c-0.3115,-0.29508 -0.8033,-0.29508 -1.1147,0l-2.21318,2.21312l-2.21311,-2.21312c-0.31149,-0.29508 -0.80328,-0.29508 -1.11476,0l-1.09837,1.11476c-0.31147,0.29508 -0.31147,0.80328 0,1.09836l2.21313,2.21312l-2.21313,2.21317c-0.31147,0.3114 -0.31147,0.8033 0,1.1147l1.09837,1.1148c0.31148,0.2951 0.80327,0.2951 1.11476,0l2.21311,-2.2295l2.21318,2.2295c0.3114,0.2951 0.8032,0.2951 1.1147,0l1.0983,-1.1148c0.3115,-0.3114 0.3115,-0.8033 0,-1.1147l-2.213,-2.21317z" id="shapePath1"/>
   </g>
  </g>
 </g>
</svg>