<?xml version="1.0"?>
<svg version="1.1" xmlns="http://www.w3.org/2000/svg" xmlns:xlink="http://www.w3.org/1999/xlink" width="512" height="512">
    <desc iVinci="yes" version="4.6" gridStep="20" showGrid="no" snapToGrid="no" codePlatform="0"/>
    <g id="Layer1" name="Layer 1" opacity="1">
        <g id="Shape1">
            <desc shapeID="1" type="0" basicInfo-basicType="0" basicInfo-roundedRectRadius="12" basicInfo-polygonSides="6" basicInfo-starPoints="5" bounding="rect(-256,-256,512,512)" text="" font-familyName="" font-pixelSize="20" font-bold="0" font-underline="0" font-alignment="1" strokeStyle="0" markerStart="0" markerEnd="0" shadowEnabled="0" shadowOffsetX="0" shadowOffsetY="2" shadowBlur="4" shadowOpacity="160" blurEnabled="0" blurRadius="4" transform="matrix(1,0,0,1,256,256)" pers-center="0,0" pers-size="0,0" pers-start="0,0" pers-end="0,0" locked="0" mesh="" flag=""/>
            <path id="shapePath1" d="M216,0 L296,0 C309.3,0 320,10.7 320,24 L320,192 L407.7,192 C425.5,192 434.4,213.5 421.8,226.1 L269.7,378.3 C262.2,385.8 249.9,385.8 242.4,378.3 L90.1,226.1 C77.5,213.5 86.4,192 104.2,192 L192,192 L192,24 C192,10.7 202.7,0 216,0 M512,376 L512,488 C512,501.3 501.3,512 488,512 L24,512 C10.7,512 0,501.3 0,488 L0,376 C0,362.7 10.7,352 24,352 L170.7,352 L219.7,401 C239.8,421.1 272.2,421.1 292.3,401 L341.3,352 L488,352 C501.3,352 512,362.7 512,376 M388,464 C388,453 379,444 368,444 C357,444 348,453 348,464 C348,475 357,484 368,484 C379,484 388,475 388,464 M452,464 C452,453 443,444 432,444 C421,444 412,453 412,464 C412,475 421,484 432,484 C443,484 452,475 452,464 Z" style="stroke:none;fill-rule:evenodd;fill:#808080;fill-opacity:1;"/>
        </g>
    </g>
</svg>
