<?xml version="1.0"?>
<svg version="1.1" xmlns="http://www.w3.org/2000/svg" xmlns:xlink="http://www.w3.org/1999/xlink" width="320" height="180">
    <desc iVinci="yes" version="4.6" gridStep="20" showGrid="no" snapToGrid="no" codePlatform="0"/>
    <g id="Layer1" name="Layer 1" opacity="1">
        <g id="Shape1">
            <desc shapeID="1" type="0" basicInfo-basicType="1" basicInfo-roundedRectRadius="12" basicInfo-polygonSides="6" basicInfo-starPoints="5" bounding="rect(-163,-91.5,326,183)" text="" font-familyName="Helvetica" font-pixelSize="20" font-bold="0" font-underline="0" font-alignment="1" strokeStyle="0" markerStart="0" markerEnd="0" shadowEnabled="0" shadowOffsetX="0" shadowOffsetY="2" shadowBlur="4" shadowOpacity="160" blurEnabled="0" blurRadius="4" transform="matrix(1,0,0,1,159.5,89)" pers-center="0,0" pers-size="0,0" pers-start="0,0" pers-end="0,0" locked="0" mesh="" flag=""/>
            <path id="shapePath1" d="M-3.5,-2.5 L322.5,-2.5 L322.5,180.5 L-3.5,180.5 L-3.5,-2.5 Z" style="stroke:#323232;stroke-opacity:1;stroke-width:1;stroke-linejoin:miter;stroke-miterlimit:2;stroke-linecap:round;fill-rule:evenodd;fill:#000000;fill-opacity:1;"/>
        </g>
        <g id="Shape2">
            <desc shapeID="2" type="2" basicInfo-basicType="0" basicInfo-roundedRectRadius="12" basicInfo-polygonSides="6" basicInfo-starPoints="5" bounding="rect(-57.5,-25,115,50)" text="I E S" font-familyName="Helvetica Neue" font-pixelSize="23" font-bold="0" font-underline="0" font-alignment="1" strokeStyle="0" markerStart="0" markerEnd="0" shadowEnabled="0" shadowOffsetX="0" shadowOffsetY="2" shadowBlur="4" shadowOpacity="160" blurEnabled="0" blurRadius="4" transform="matrix(1,0,0,1,158.968,89.3319)" pers-center="0,0" pers-size="0,0" pers-start="0,0" pers-end="0,0" locked="0" mesh="" flag=""/>
            <path id="shapePath2" d="M137.026,80.8005 L137.026,97.2225 L139.211,97.2225 L139.211,80.8005 L137.026,80.8005 M149.278,80.8005 L149.278,97.2225 L160.686,97.2225 L160.686,95.3825 L151.463,95.3825 L151.463,89.7015 L159.996,89.7015 L159.996,87.8615 L151.463,87.8615 L151.463,82.6405 L160.617,82.6405 L160.617,80.8005 L149.278,80.8005 M179.214,85.6075 L181.284,85.6075 C181.253,84.7028 181.081,83.9247 180.767,83.273 C180.452,82.6213 180.023,82.0808 179.479,81.6515 C178.934,81.2222 178.302,80.9078 177.581,80.7085 C176.86,80.5092 176.078,80.4095 175.235,80.4095 C174.484,80.4095 173.752,80.5053 173.039,80.697 C172.326,80.8887 171.689,81.18 171.13,81.571 C170.57,81.962 170.121,82.4603 169.784,83.066 C169.447,83.6717 169.278,84.3885 169.278,85.2165 C169.278,85.9678 169.428,86.5927 169.727,87.091 C170.026,87.5893 170.424,87.9957 170.923,88.31 C171.421,88.6243 171.984,88.8773 172.613,89.069 C173.242,89.2607 173.882,89.4293 174.534,89.575 C175.185,89.7207 175.825,89.8625 176.454,90.0005 C177.083,90.1385 177.646,90.3187 178.145,90.541 C178.643,90.7633 179.042,91.0508 179.341,91.4035 C179.64,91.7562 179.789,92.2162 179.789,92.7835 C179.789,93.3815 179.666,93.8722 179.421,94.2555 C179.176,94.6388 178.854,94.9417 178.455,95.164 C178.056,95.3863 177.608,95.5435 177.11,95.6355 C176.611,95.7275 176.117,95.7735 175.626,95.7735 C175.013,95.7735 174.415,95.6968 173.832,95.5435 C173.249,95.3902 172.74,95.1525 172.303,94.8305 C171.866,94.5085 171.513,94.0983 171.245,93.6 C170.976,93.1017 170.842,92.5075 170.842,91.8175 L168.772,91.8175 C168.772,92.8142 168.952,93.6767 169.313,94.405 C169.673,95.1333 170.164,95.7313 170.785,96.199 C171.406,96.6667 172.126,97.0155 172.947,97.2455 C173.767,97.4755 174.637,97.5905 175.557,97.5905 C176.308,97.5905 177.064,97.5023 177.823,97.326 C178.582,97.1497 179.268,96.866 179.881,96.475 C180.494,96.084 180.997,95.578 181.388,94.957 C181.779,94.336 181.974,93.5885 181.974,92.7145 C181.974,91.9018 181.825,91.2272 181.526,90.6905 C181.227,90.1538 180.828,89.7092 180.33,89.3565 C179.831,89.0038 179.268,88.724 178.639,88.517 C178.01,88.31 177.37,88.1298 176.719,87.9765 C176.067,87.8232 175.427,87.6813 174.798,87.551 C174.169,87.4207 173.606,87.2558 173.108,87.0565 C172.609,86.8572 172.211,86.6003 171.912,86.286 C171.613,85.9717 171.463,85.5615 171.463,85.0555 C171.463,84.5188 171.567,84.0703 171.774,83.71 C171.981,83.3497 172.257,83.0622 172.602,82.8475 C172.947,82.6328 173.341,82.4795 173.786,82.3875 C174.231,82.2955 174.683,82.2495 175.143,82.2495 C176.278,82.2495 177.209,82.514 177.938,83.043 C178.666,83.572 179.091,84.4268 179.214,85.6075 Z" style="stroke:none;fill-rule:nonzero;fill:#464646;fill-opacity:1;"/>
        </g>
    </g>
</svg>
