<?xml version="1.0"?>
<svg version="1.1" xmlns="http://www.w3.org/2000/svg" xmlns:xlink="http://www.w3.org/1999/xlink" width="320" height="180">
    <desc iVinci="yes" version="4.6" gridStep="20" showGrid="no" snapToGrid="no" codePlatform="0"/>
    <g id="Layer1" name="Layer 1" opacity="1">
        <g id="Shape1">
            <desc shapeID="1" type="0" basicInfo-basicType="1" basicInfo-roundedRectRadius="12" basicInfo-polygonSides="6" basicInfo-starPoints="5" bounding="rect(-159.923,-89.557,319.846,179.114)" text="" font-familyName="Helvetica" font-pixelSize="20" font-bold="0" font-underline="0" font-alignment="1" strokeStyle="0" markerStart="0" markerEnd="0" shadowEnabled="0" shadowOffsetX="0" shadowOffsetY="2" shadowBlur="4" shadowOpacity="160" blurEnabled="0" blurRadius="4" transform="matrix(1.00048,0,0,1.00495,160,90)" pers-center="0,0" pers-size="0,0" pers-start="0,0" pers-end="0,0" locked="0" mesh="" flag=""/>
            <path id="shapePath1" d="M-3.05176e-05,0 L320,0 L320,180 L-3.05176e-05,180 L-3.05176e-05,0 Z" style="stroke:none;fill-rule:evenodd;fill:#000000;fill-opacity:1;"/>
        </g>
        <g id="Shape2">
            <desc shapeID="2" type="0" basicInfo-basicType="0" basicInfo-roundedRectRadius="12" basicInfo-polygonSides="6" basicInfo-starPoints="5" bounding="rect(-51.3194,-6.93,102.639,13.86)" text="NO IMAGE" font-familyName="Apple SD 산돌고딕 Neo" font-pixelSize="20" font-bold="0" font-underline="0" font-alignment="1" strokeStyle="0" markerStart="0" markerEnd="0" shadowEnabled="0" shadowOffsetX="0" shadowOffsetY="2" shadowBlur="4" shadowOpacity="160" blurEnabled="0" blurRadius="4" transform="matrix(1.29102,0,0,1.29102,160,90)" pers-center="0,0" pers-size="0,0" pers-start="0,0" pers-end="0,0" locked="0" mesh="" flag=""/>
            <path id="shapePath2" d="M93.7457,98.6627 L95.6564,98.6627 L95.6564,84.1259 L95.7338,84.1259 L104.332,98.6627 L106.449,98.6627 L106.449,81.3372 L104.59,81.3372 L104.59,95.2028 L104.513,95.2028 L96.1728,81.3372 L93.7457,81.3372 L93.7457,98.6627 M121.075,98.9468 C125.826,98.9468 128.692,95.6676 128.692,90.2195 L128.692,89.8063 C128.692,84.1259 125.826,81.0532 121.152,81.0532 C116.375,81.0532 113.509,84.3324 113.509,89.7805 L113.509,90.1936 C113.509,95.8741 116.375,98.9468 121.075,98.9468 M121.126,97.2684 C117.253,97.2684 115.704,94.3765 115.704,90.1936 L115.704,89.3932 C115.704,85.5202 117.486,82.7316 121.049,82.7316 C124.974,82.7574 126.497,85.5976 126.497,89.8063 L126.497,90.6068 C126.497,94.454 124.715,97.2684 121.126,97.2684 M142.58,98.6627 L144.62,98.6627 L144.62,81.3372 L142.58,81.3372 L142.58,98.6627 M152.712,98.6627 L154.623,98.6627 L154.623,84.0226 L154.7,84.0226 L159.709,98.6627 L161.62,98.6627 L166.681,84.0226 L166.758,84.0226 L166.758,98.6627 L168.824,98.6627 L168.824,81.3372 L165.803,81.3372 L160.82,95.9774 L160.768,95.9774 L155.759,81.3372 L152.712,81.3372 L152.712,98.6627 M175.076,98.6627 L177.038,98.6627 L178.819,93.6019 L185.765,93.6019 L187.598,98.6627 L189.742,98.6627 L183.416,81.3372 L181.427,81.3372 L175.076,98.6627 M182.254,84.0742 L182.305,84.0742 L185.12,91.872 L179.413,91.872 L182.254,84.0742 M203.026,98.9468 C205.221,98.9468 207.002,98.482 208.345,97.9914 L208.345,90.2711 L202.613,90.2711 L202.613,91.9753 L206.331,91.9753 L206.331,96.7004 C205.505,97.0102 204.291,97.2168 203.078,97.2168 C198.43,97.2168 197.19,94.3249 197.19,90.2969 L197.19,89.5998 C197.19,85.9333 198.714,82.7832 203.026,82.7832 C205.324,82.7832 206.641,83.3512 207.699,83.8418 L207.699,82.0602 C206.667,81.5438 205.324,81.0532 203.181,81.0532 C198.817,81.0532 194.996,83.3771 194.996,89.8838 L194.996,90.3486 C194.996,96.2873 198.12,98.9468 203.026,98.9468 M215.9,98.6627 L226.254,98.6627 L226.254,96.9328 L217.94,96.9328 L217.94,90.6068 L224.292,90.6068 L224.292,88.8768 L217.94,88.8768 L217.94,83.0672 L226.177,83.0672 L226.177,81.3372 L215.9,81.3372 L215.9,98.6627 Z" style="stroke:none;fill-rule:nonzero;fill:#3e3e3e;fill-opacity:1;"/>
        </g>
    </g>
</svg>
