<?xml version="1.0"?>
<svg version="1.1" xmlns="http://www.w3.org/2000/svg" xmlns:xlink="http://www.w3.org/1999/xlink" width="320" height="180">
    <desc iVinci="yes" version="4.6" gridStep="20" showGrid="no" snapToGrid="no" codePlatform="0"/>
    <g id="Layer1" name="Layer 1" opacity="1">
        <g id="Shape1">
            <desc shapeID="1" type="0" basicInfo-basicType="1" basicInfo-roundedRectRadius="12" basicInfo-polygonSides="6" basicInfo-starPoints="5" bounding="rect(-159.923,-89.5567,319.846,179.113)" text="" font-familyName="Helvetica" font-pixelSize="20" font-bold="0" font-underline="0" font-alignment="1" strokeStyle="0" markerStart="0" markerEnd="0" shadowEnabled="0" shadowOffsetX="0" shadowOffsetY="2" shadowBlur="4" shadowOpacity="160" blurEnabled="0" blurRadius="4" transform="matrix(1.00048,0,0,1.00495,160,90)" pers-center="0,0" pers-size="0,0" pers-start="0,0" pers-end="0,0" locked="0" mesh="" flag=""/>
            <path id="shapePath1" d="M-1.52588e-05,7.62939e-06 L320,7.62939e-06 L320,180 L-1.52588e-05,180 L-1.52588e-05,7.62939e-06 Z" style="stroke:none;fill-rule:evenodd;fill:#000000;fill-opacity:1;"/>
        </g>
        <g id="Shape2">
            <desc shapeID="2" type="0" basicInfo-basicType="0" basicInfo-roundedRectRadius="12" basicInfo-polygonSides="6" basicInfo-starPoints="5" bounding="rect(-27.7373,-8.5144,55.4746,17.0288)" text="P D F" font-familyName="Gurmukhi Sangam MN" font-pixelSize="25" font-bold="0" font-underline="0" font-alignment="1" strokeStyle="0" markerStart="0" markerEnd="0" shadowEnabled="0" shadowOffsetX="0" shadowOffsetY="2" shadowBlur="4" shadowOpacity="160" blurEnabled="0" blurRadius="4" transform="matrix(1,0,0,1,159.864,98.5144)" pers-center="0,0" pers-size="0,0" pers-start="0,0" pers-end="0,0" locked="0" mesh="" flag=""/>
            <path id="shapePath2" d="M132.126,90 L138.572,90 C139.402,90 140.134,90.1444 140.769,90.4333 C141.404,90.7223 141.937,91.0966 142.368,91.5564 C142.799,92.0162 143.127,92.535 143.351,93.1128 C143.574,93.6906 143.686,94.2684 143.686,94.8462 C143.686,95.4647 143.574,96.0669 143.351,96.6528 C143.127,97.2388 142.797,97.7596 142.362,98.2153 C141.926,98.6711 141.391,99.0373 140.757,99.314 C140.122,99.5907 139.393,99.729 138.572,99.729 L133.933,99.729 L133.933,107.029 L132.126,107.029 L132.126,90 M133.933,98.1299 L138.572,98.1299 C139.011,98.1299 139.43,98.0444 139.829,97.8735 C140.228,97.7026 140.58,97.4666 140.885,97.1655 C141.19,96.8644 141.432,96.5145 141.611,96.1157 C141.79,95.717 141.88,95.2856 141.88,94.8218 C141.88,94.3661 141.796,93.9449 141.629,93.5583 C141.463,93.1718 141.231,92.8361 140.934,92.5513 C140.637,92.2664 140.287,92.0447 139.884,91.886 C139.481,91.7273 139.044,91.6479 138.572,91.6479 L133.933,91.6479 L133.933,98.1299 M153.282,90 L159.594,90 C160.342,90 161.044,90.1017 161.699,90.3052 C162.354,90.5086 162.955,90.7955 163.5,91.1658 C164.045,91.536 164.529,91.9816 164.952,92.5024 C165.376,93.0233 165.734,93.597 166.027,94.2236 C166.32,94.8503 166.543,95.5237 166.698,96.2439 C166.853,96.9641 166.93,97.7108 166.93,98.4839 C166.93,99.6964 166.751,100.822 166.393,101.859 C166.035,102.897 165.532,103.8 164.885,104.569 C164.238,105.338 163.465,105.94 162.566,106.376 C161.667,106.811 160.676,107.029 159.594,107.029 L153.282,107.029 L153.282,90 M155.089,105.381 L158.873,105.381 C159.768,105.381 160.599,105.226 161.364,104.917 C162.128,104.608 162.79,104.16 163.347,103.574 C163.905,102.988 164.34,102.27 164.653,101.42 C164.967,100.569 165.123,99.6029 165.123,98.5205 C165.123,97.3405 164.965,96.3171 164.647,95.4504 C164.33,94.5837 163.89,93.8696 163.329,93.3081 C162.767,92.7466 162.106,92.3295 161.345,92.0569 C160.584,91.7843 159.76,91.6479 158.873,91.6479 L155.089,91.6479 L155.089,105.381 M187.601,90 L187.601,91.6479 L178.323,91.6479 L178.323,97.4097 L186.38,97.4097 L186.38,99.0576 L178.323,99.0576 L178.323,107.029 L176.517,107.029 L176.517,90 L187.601,90 Z" style="stroke:none;fill-rule:nonzero;fill:#474747;fill-opacity:1;"/>
        </g>
    </g>
</svg>
