<?xml version="1.0"?>
<svg version="1.1" xmlns="http://www.w3.org/2000/svg" xmlns:xlink="http://www.w3.org/1999/xlink" width="320" height="180">
    <desc iVinci="yes" version="4.6" gridStep="20" showGrid="no" snapToGrid="no" codePlatform="0"/>
    <g id="Layer1" name="Layer 1" opacity="1">
        <g id="Shape1">
            <desc shapeID="1" type="0" basicInfo-basicType="1" basicInfo-roundedRectRadius="12" basicInfo-polygonSides="6" basicInfo-starPoints="5" bounding="rect(-159.923,-89.5569,319.846,179.113)" text="" font-familyName="Helvetica" font-pixelSize="20" font-bold="0" font-underline="0" font-alignment="1" strokeStyle="0" markerStart="0" markerEnd="0" shadowEnabled="0" shadowOffsetX="0" shadowOffsetY="2" shadowBlur="4" shadowOpacity="160" blurEnabled="0" blurRadius="4" transform="matrix(1.00048,0,0,1.00495,160,90.0002)" pers-center="0,0" pers-size="0,0" pers-start="0,0" pers-end="0,0" locked="0" mesh="" flag=""/>
            <path id="shapePath1" d="M0,7.62939e-06 L320,7.62939e-06 L320,180 L0,180 L0,7.62939e-06 Z" style="stroke:none;fill-rule:evenodd;fill:#000000;fill-opacity:1;"/>
        </g>
        <g id="Shape2">
            <desc shapeID="2" type="2" basicInfo-basicType="0" basicInfo-roundedRectRadius="12" basicInfo-polygonSides="6" basicInfo-starPoints="5" bounding="rect(-75,-23.5,150,47)" text="P P T" font-familyName="Helvetica" font-pixelSize="23" font-bold="0" font-underline="0" font-alignment="1" strokeStyle="0" markerStart="0" markerEnd="0" shadowEnabled="0" shadowOffsetX="0" shadowOffsetY="2" shadowBlur="4" shadowOpacity="160" blurEnabled="0" blurRadius="4" transform="matrix(1,0,0,1,159.162,100.294)" pers-center="0,0" pers-size="0,0" pers-start="0,0" pers-end="0,0" locked="0" mesh="" flag=""/>
            <path id="shapePath2" d="M133.002,90 L140.426,90 C141.893,90 143.076,90.4137 143.975,91.241 C144.873,92.0683 145.322,93.2306 145.322,94.728 C145.322,96.0158 144.922,97.137 144.121,98.0916 C143.32,99.0461 142.088,99.5234 140.426,99.5234 L135.237,99.5234 L135.237,106.498 L133.002,106.498 L133.002,90 M143.065,94.7393 C143.065,93.5264 142.616,92.7028 141.717,92.2686 C141.223,92.0365 140.546,91.9204 139.685,91.9204 L135.237,91.9204 L135.237,97.6367 L139.685,97.6367 C140.688,97.6367 141.502,97.4233 142.127,96.9966 C142.752,96.5698 143.065,95.8174 143.065,94.7393 M154.299,90 L161.723,90 C163.19,90 164.373,90.4137 165.271,91.241 C166.17,92.0683 166.619,93.2306 166.619,94.728 C166.619,96.0158 166.219,97.137 165.417,98.0916 C164.616,99.0461 163.385,99.5234 161.723,99.5234 L156.534,99.5234 L156.534,106.498 L154.299,106.498 L154.299,90 M164.362,94.7393 C164.362,93.5264 163.913,92.7028 163.014,92.2686 C162.52,92.0365 161.842,91.9204 160.981,91.9204 L156.534,91.9204 L156.534,97.6367 L160.981,97.6367 C161.985,97.6367 162.799,97.4233 163.424,96.9966 C164.049,96.5698 164.362,95.8174 164.362,94.7393 M186.998,90 L186.998,91.9653 L181.438,91.9653 L181.438,106.498 L179.17,106.498 L179.17,91.9653 L173.611,91.9653 L173.611,90 L186.998,90 Z" style="stroke:none;fill-rule:nonzero;fill:#474747;fill-opacity:1;"/>
        </g>
    </g>
</svg>
