<?xml version="1.0"?>
<svg version="1.1" xmlns="http://www.w3.org/2000/svg" xmlns:xlink="http://www.w3.org/1999/xlink" width="320" height="180">
    <desc iVinci="yes" version="4.6" gridStep="20" showGrid="no" snapToGrid="no" codePlatform="0"/>
    <g id="Layer1" name="Layer 1" opacity="1">
        <g id="Shape1">
            <desc shapeID="1" type="0" basicInfo-basicType="1" basicInfo-roundedRectRadius="12" basicInfo-polygonSides="6" basicInfo-starPoints="5" bounding="rect(-159.923,-89.5569,319.846,179.113)" text="" font-familyName="Helvetica" font-pixelSize="20" font-bold="0" font-underline="0" font-alignment="1" strokeStyle="0" markerStart="0" markerEnd="0" shadowEnabled="0" shadowOffsetX="0" shadowOffsetY="2" shadowBlur="4" shadowOpacity="160" blurEnabled="0" blurRadius="4" transform="matrix(1.00048,0,0,1.00495,160,90.0002)" pers-center="0,0" pers-size="0,0" pers-start="0,0" pers-end="0,0" locked="0" mesh="" flag=""/>
            <path id="shapePath1" d="M0,7.62939e-06 L320,7.62939e-06 L320,180 L0,180 L0,7.62939e-06 Z" style="stroke:none;fill-rule:evenodd;fill:#000000;fill-opacity:1;"/>
        </g>
        <g id="Shape2">
            <desc shapeID="2" type="0" basicInfo-basicType="0" basicInfo-roundedRectRadius="12" basicInfo-polygonSides="6" basicInfo-starPoints="5" bounding="rect(-31.593,-8.5145,63.186,17.029)" text="H W P" font-familyName="Gurmukhi Sangam MN" font-pixelSize="25" font-bold="0" font-underline="0" font-alignment="1" strokeStyle="0" markerStart="0" markerEnd="0" shadowEnabled="0" shadowOffsetX="0" shadowOffsetY="2" shadowBlur="4" shadowOpacity="160" blurEnabled="0" blurRadius="4" transform="matrix(1,0,0,1,160,98.5145)" pers-center="0,0" pers-size="0,0" pers-start="0,0" pers-end="0,0" locked="0" mesh="" flag=""/>
            <path id="shapePath2" d="M130.214,90 L130.214,97.4097 L139.479,97.4097 L139.479,90 L141.286,90 L141.286,107.029 L139.479,107.029 L139.479,99.021 L130.214,99.021 L130.214,107.029 L128.407,107.029 L128.407,90 L130.214,90 M160.643,92.8564 L156.468,107.029 L154.588,107.029 L150.303,90 L152.196,90 L155.589,103.782 L159.788,90 L161.51,90 L165.672,103.647 C166.226,101.377 166.799,99.1064 167.393,96.8359 C167.987,94.5654 168.561,92.2868 169.115,90 L171.007,90 L166.698,107.029 L164.83,107.029 L160.643,92.8564 M180.032,90 L186.478,90 C187.308,90 188.04,90.1444 188.675,90.4333 C189.31,90.7223 189.843,91.0966 190.274,91.5564 C190.705,92.0162 191.033,92.535 191.257,93.1128 C191.481,93.6906 191.593,94.2684 191.593,94.8462 C191.593,95.4647 191.481,96.0669 191.257,96.6528 C191.033,97.2388 190.703,97.7596 190.268,98.2153 C189.833,98.6711 189.298,99.0373 188.663,99.314 C188.028,99.5907 187.3,99.729 186.478,99.729 L181.839,99.729 L181.839,107.029 L180.032,107.029 L180.032,90 M181.839,98.1299 L186.478,98.1299 C186.917,98.1299 187.336,98.0444 187.735,97.8735 C188.134,97.7026 188.486,97.4666 188.791,97.1655 C189.096,96.8644 189.338,96.5145 189.517,96.1157 C189.696,95.717 189.786,95.2856 189.786,94.8218 C189.786,94.3661 189.702,93.9449 189.536,93.5583 C189.369,93.1718 189.137,92.8361 188.84,92.5513 C188.543,92.2664 188.193,92.0447 187.79,91.886 C187.387,91.7273 186.95,91.6479 186.478,91.6479 L181.839,91.6479 L181.839,98.1299 Z" style="stroke:none;fill-rule:evenodd;fill:#474747;fill-opacity:1;"/>
        </g>
    </g>
    <g id="Layer2" name="Layer 3" opacity="1">
        <g id="Shape3">
            <desc shapeID="3" type="0" basicInfo-basicType="1" basicInfo-roundedRectRadius="12" basicInfo-polygonSides="6" basicInfo-starPoints="5" bounding="rect(-48.574,-12.3604,97.148,24.7207)" text="" font-familyName="Helvetica" font-pixelSize="23" font-bold="0" font-underline="0" font-alignment="1" strokeStyle="0" markerStart="0" markerEnd="0" shadowEnabled="0" shadowOffsetX="0" shadowOffsetY="2" shadowBlur="4" shadowOpacity="160" blurEnabled="0" blurRadius="4" transform="matrix(1,0,0,1,163.287,98.4491)" pers-center="0,0" pers-size="0,0" pers-start="0,0" pers-end="0,0" locked="0" mesh="" flag=""/>
            <path id="shapePath3" d="M114.713,86.0888 L211.861,86.0888 L211.861,110.809 L114.713,110.809 L114.713,86.0888 Z" style="stroke:none;fill-rule:evenodd;fill:#000000;fill-opacity:1;"/>
        </g>
    </g>
    <g id="Layer3" name="Layer 2" opacity="1">
        <g id="Shape4">
            <desc shapeID="4" type="2" basicInfo-basicType="0" basicInfo-roundedRectRadius="12" basicInfo-polygonSides="6" basicInfo-starPoints="5" bounding="rect(-39.6832,-15.1794,79.3665,30.3588)" text="P  P  T" font-familyName="Helvetica" font-pixelSize="23" font-bold="0" font-underline="0" font-alignment="1" strokeStyle="0" markerStart="0" markerEnd="0" shadowEnabled="0" shadowOffsetX="0" shadowOffsetY="2" shadowBlur="4" shadowOpacity="160" blurEnabled="0" blurRadius="4" transform="matrix(1,0,0,1,159.162,99.9663)" pers-center="0,0" pers-size="0,0" pers-start="0,0" pers-end="0,0" locked="0" mesh="" flag=""/>
            <path id="shapePath4" d="M126.627,90 L134.051,90 C135.518,90 136.701,90.4137 137.6,91.241 C138.498,92.0683 138.947,93.2306 138.947,94.728 C138.947,96.0158 138.547,97.137 137.746,98.0916 C136.945,99.0461 135.713,99.5234 134.051,99.5234 L128.862,99.5234 L128.862,106.498 L126.627,106.498 L126.627,90 M136.69,94.7393 C136.69,93.5264 136.241,92.7028 135.342,92.2686 C134.848,92.0365 134.171,91.9204 133.31,91.9204 L128.862,91.9204 L128.862,97.6367 L133.31,97.6367 C134.313,97.6367 135.127,97.4233 135.752,96.9966 C136.377,96.5698 136.69,95.8174 136.69,94.7393 M154.299,90 L161.723,90 C163.19,90 164.373,90.4137 165.271,91.241 C166.17,92.0683 166.619,93.2306 166.619,94.728 C166.619,96.0158 166.219,97.137 165.417,98.0916 C164.616,99.0461 163.385,99.5234 161.723,99.5234 L156.534,99.5234 L156.534,106.498 L154.299,106.498 L154.299,90 M164.362,94.7393 C164.362,93.5264 163.913,92.7028 163.014,92.2686 C162.52,92.0365 161.842,91.9204 160.981,91.9204 L156.534,91.9204 L156.534,97.6367 L160.981,97.6367 C161.985,97.6367 162.799,97.4233 163.424,96.9966 C164.049,96.5698 164.362,95.8174 164.362,94.7393 M193.373,90 L193.373,91.9653 L187.813,91.9653 L187.813,106.498 L185.545,106.498 L185.545,91.9653 L179.986,91.9653 L179.986,90 L193.373,90 Z" style="stroke:none;fill-rule:nonzero;fill:#474747;fill-opacity:1;"/>
        </g>
    </g>
</svg>
