<?xml version="1.0"?>
<svg version="1.1" xmlns="http://www.w3.org/2000/svg" xmlns:xlink="http://www.w3.org/1999/xlink" width="320" height="180">
    <desc iVinci="yes" version="4.6" gridStep="20" showGrid="no" snapToGrid="no" codePlatform="0"/>
    <g id="Layer1" name="Layer 1" opacity="1">
        <g id="Shape1">
            <desc shapeID="1" type="0" basicInfo-basicType="1" basicInfo-roundedRectRadius="12" basicInfo-polygonSides="6" basicInfo-starPoints="5" bounding="rect(-159.923,-89.5567,319.846,179.113)" text="" font-familyName="Helvetica" font-pixelSize="20" font-bold="0" font-underline="0" font-alignment="1" strokeStyle="0" markerStart="0" markerEnd="0" shadowEnabled="0" shadowOffsetX="0" shadowOffsetY="2" shadowBlur="4" shadowOpacity="160" blurEnabled="0" blurRadius="4" transform="matrix(1.00048,0,0,1.00495,160,90)" pers-center="0,0" pers-size="0,0" pers-start="0,0" pers-end="0,0" locked="0" mesh="" flag=""/>
            <path id="shapePath1" d="M-1.52588e-05,7.62939e-06 L320,7.62939e-06 L320,180 L-1.52588e-05,180 L-1.52588e-05,7.62939e-06 Z" style="stroke:none;fill-rule:evenodd;fill:#000000;fill-opacity:1;"/>
        </g>
        <g id="Shape2">
            <desc shapeID="2" type="0" basicInfo-basicType="0" basicInfo-roundedRectRadius="12" basicInfo-polygonSides="6" basicInfo-starPoints="5" bounding="rect(-53.1301,-9.00269,106.26,18.0054)" text="S O U N D" font-familyName="Gurmukhi Sangam MN" font-pixelSize="25" font-bold="0" font-underline="0" font-alignment="1" strokeStyle="0" markerStart="0" markerEnd="0" shadowEnabled="0" shadowOffsetX="0" shadowOffsetY="2" shadowBlur="4" shadowOpacity="160" blurEnabled="0" blurRadius="4" transform="matrix(1,0,0,1,160,99.0027)" pers-center="0,0" pers-size="0,0" pers-start="0,0" pers-end="0,0" locked="0" mesh="" flag=""/>
            <path id="shapePath2" d="M108.738,102.183 C108.778,102.793 108.917,103.352 109.153,103.861 C109.389,104.37 109.702,104.811 110.093,105.186 C110.483,105.56 110.945,105.851 111.478,106.058 C112.011,106.266 112.595,106.37 113.23,106.37 C113.799,106.37 114.345,106.307 114.865,106.18 C115.386,106.054 115.846,105.855 116.245,105.582 C116.644,105.31 116.961,104.956 117.197,104.52 C117.433,104.085 117.551,103.558 117.551,102.939 C117.551,102.435 117.423,102.006 117.167,101.652 C116.91,101.298 116.572,100.992 116.153,100.736 C115.734,100.48 115.258,100.258 114.725,100.071 C114.192,99.8836 113.653,99.7087 113.108,99.5459 C112.652,99.4157 112.194,99.2733 111.734,99.1187 C111.275,98.964 110.831,98.7891 110.404,98.5938 C109.977,98.3984 109.578,98.1746 109.208,97.9224 C108.837,97.6701 108.516,97.373 108.243,97.0312 C107.971,96.6895 107.755,96.3009 107.596,95.8655 C107.438,95.4301 107.358,94.9276 107.358,94.3579 C107.358,93.6499 107.497,93.0253 107.773,92.4841 C108.05,91.943 108.438,91.4893 108.939,91.123 C109.439,90.7568 110.038,90.4781 110.733,90.2869 C111.429,90.0956 112.192,90 113.022,90 C113.763,90 114.418,90.0732 114.988,90.2197 C115.557,90.3662 116.054,90.5656 116.477,90.8179 C116.9,91.0702 117.258,91.3652 117.551,91.7029 C117.844,92.0406 118.084,92.3966 118.271,92.771 C118.458,93.1453 118.597,93.5319 118.686,93.9307 C118.776,94.3294 118.833,94.7119 118.857,95.0781 L117.002,95.0781 C116.953,94.5085 116.817,94.008 116.593,93.5767 C116.369,93.1453 116.08,92.7832 115.726,92.4902 C115.372,92.1973 114.963,91.9775 114.499,91.8311 C114.035,91.6846 113.543,91.6113 113.022,91.6113 C112.542,91.6113 112.072,91.6602 111.612,91.7578 C111.153,91.8555 110.742,92.0121 110.379,92.2278 C110.017,92.4434 109.724,92.7262 109.5,93.0762 C109.277,93.4261 109.165,93.8534 109.165,94.3579 C109.165,94.8787 109.291,95.3202 109.543,95.6824 C109.795,96.0445 110.133,96.3558 110.556,96.6162 C110.98,96.8766 111.462,97.1004 112.003,97.2876 C112.544,97.4748 113.104,97.6579 113.681,97.8369 C114.137,97.9753 114.595,98.1217 115.055,98.2764 C115.514,98.431 115.956,98.606 116.379,98.8013 C116.802,98.9966 117.195,99.2183 117.557,99.4666 C117.919,99.7148 118.235,100.004 118.503,100.333 C118.772,100.663 118.981,101.041 119.132,101.469 C119.282,101.896 119.358,102.386 119.358,102.939 C119.358,103.77 119.205,104.5 118.9,105.131 C118.595,105.761 118.17,106.288 117.624,106.711 C117.079,107.135 116.432,107.454 115.683,107.67 C114.935,107.885 114.117,107.993 113.23,107.993 C112.432,107.993 111.655,107.857 110.898,107.584 C110.141,107.312 109.468,106.925 108.878,106.425 C108.288,105.924 107.812,105.316 107.45,104.6 C107.088,103.883 106.894,103.078 106.87,102.183 L108.738,102.183 M143.246,98.9722 C143.246,100.282 143.077,101.487 142.739,102.585 C142.402,103.684 141.907,104.63 141.256,105.424 C140.605,106.217 139.805,106.833 138.857,107.273 C137.909,107.712 136.825,107.932 135.604,107.932 C134.384,107.932 133.299,107.712 132.351,107.273 C131.403,106.833 130.605,106.217 129.958,105.424 C129.312,104.63 128.819,103.684 128.481,102.585 C128.144,101.487 127.975,100.282 127.975,98.9722 C127.975,97.6701 128.144,96.4718 128.481,95.3772 C128.819,94.2826 129.312,93.3407 129.958,92.5513 C130.605,91.7619 131.403,91.1475 132.351,90.708 C133.299,90.2686 134.384,90.0488 135.604,90.0488 C136.825,90.0488 137.909,90.2686 138.857,90.708 C139.805,91.1475 140.605,91.7619 141.256,92.5513 C141.907,93.3407 142.402,94.2826 142.739,95.3772 C143.077,96.4718 143.246,97.6701 143.246,98.9722 M141.427,98.9722 C141.427,97.8247 141.276,96.7973 140.975,95.8899 C140.674,94.9825 140.261,94.2135 139.736,93.5828 C139.211,92.9521 138.595,92.4719 137.887,92.1423 C137.179,91.8127 136.418,91.6479 135.604,91.6479 C134.782,91.6479 134.017,91.8127 133.309,92.1423 C132.601,92.4719 131.987,92.9521 131.466,93.5828 C130.945,94.2135 130.536,94.9825 130.239,95.8899 C129.942,96.7973 129.794,97.8247 129.794,98.9722 C129.794,100.12 129.942,101.149 130.239,102.061 C130.536,102.972 130.945,103.743 131.466,104.374 C131.987,105.004 132.601,105.487 133.309,105.82 C134.017,106.154 134.782,106.321 135.604,106.321 C136.418,106.321 137.179,106.154 137.887,105.82 C138.595,105.487 139.211,105.004 139.736,104.374 C140.261,103.743 140.674,102.972 140.975,102.061 C141.276,101.149 141.427,100.12 141.427,98.9722 M154.633,90.4761 L154.633,101.951 C154.633,102.642 154.761,103.263 155.018,103.812 C155.274,104.362 155.608,104.827 156.019,105.21 C156.43,105.592 156.893,105.885 157.41,106.089 C157.927,106.292 158.45,106.394 158.979,106.394 C159.532,106.394 160.088,106.3 160.645,106.113 C161.202,105.926 161.703,105.649 162.146,105.283 C162.59,104.917 162.952,104.459 163.233,103.91 C163.514,103.361 163.654,102.724 163.654,102 L163.654,90.4761 L165.461,90.4761 L165.461,101.877 C165.461,102.537 165.373,103.145 165.198,103.702 C165.023,104.26 164.781,104.766 164.472,105.222 C164.163,105.678 163.801,106.079 163.385,106.425 C162.97,106.77 162.523,107.061 162.043,107.297 C161.563,107.533 161.064,107.71 160.547,107.828 C160.031,107.946 159.516,108.005 159.003,108.005 C158.515,108.005 158.023,107.946 157.526,107.828 C157.03,107.71 156.554,107.535 156.098,107.303 C155.642,107.072 155.215,106.783 154.816,106.437 C154.417,106.091 154.072,105.69 153.779,105.234 C153.486,104.779 153.254,104.266 153.083,103.696 C152.912,103.127 152.826,102.504 152.826,101.829 L152.826,90.4761 L154.633,90.4761 M178.447,90.4761 L187.114,105.198 L187.114,90.4761 L188.92,90.4761 L188.92,107.505 L186.503,107.505 L177.836,92.7954 L177.836,107.505 L176.03,107.505 L176.03,90.4761 L178.447,90.4761 M199.483,90.4761 L205.794,90.4761 C206.542,90.4761 207.244,90.5778 207.899,90.7812 C208.555,90.9847 209.155,91.2716 209.7,91.6418 C210.245,92.0121 210.729,92.4577 211.153,92.9785 C211.576,93.4994 211.934,94.0731 212.227,94.6997 C212.52,95.3263 212.744,95.9998 212.898,96.72 C213.053,97.4402 213.13,98.1869 213.13,98.96 C213.13,100.173 212.951,101.298 212.593,102.335 C212.235,103.373 211.732,104.276 211.085,105.045 C210.438,105.814 209.665,106.416 208.766,106.852 C207.867,107.287 206.876,107.505 205.794,107.505 L199.483,107.505 L199.483,90.4761 M201.289,105.857 L205.073,105.857 C205.969,105.857 206.799,105.702 207.564,105.393 C208.329,105.084 208.99,104.636 209.547,104.05 C210.105,103.464 210.54,102.746 210.854,101.896 C211.167,101.045 211.323,100.079 211.323,98.9966 C211.323,97.8166 211.165,96.7932 210.847,95.9265 C210.53,95.0598 210.091,94.3457 209.529,93.7842 C208.968,93.2227 208.306,92.8056 207.545,92.533 C206.785,92.2603 205.961,92.124 205.073,92.124 L201.289,92.124 L201.289,105.857 Z" style="stroke:none;fill-rule:nonzero;fill:#474747;fill-opacity:1;"/>
        </g>
    </g>
</svg>
