<?xml version="1.0"?>
<svg version="1.1" xmlns="http://www.w3.org/2000/svg" xmlns:xlink="http://www.w3.org/1999/xlink" width="320" height="180">
    <desc iVinci="yes" version="4.6" gridStep="20" showGrid="no" snapToGrid="no" codePlatform="0"/>
    <g id="Layer1" name="Layer 1" opacity="1">
        <g id="Shape1">
            <desc shapeID="1" type="0" basicInfo-basicType="1" basicInfo-roundedRectRadius="12" basicInfo-polygonSides="6" basicInfo-starPoints="5" bounding="rect(-160,-91,320,182)" text="" font-familyName="Helvetica" font-pixelSize="20" font-bold="0" font-underline="0" font-alignment="1" strokeStyle="0" markerStart="0" markerEnd="0" shadowEnabled="0" shadowOffsetX="0" shadowOffsetY="2" shadowBlur="4" shadowOpacity="160" blurEnabled="0" blurRadius="4" transform="matrix(1,0,0,1,159.5,90.5)" pers-center="0,0" pers-size="0,0" pers-start="0,0" pers-end="0,0" locked="0" mesh="" flag=""/>
            <path id="shapePath1" d="M-0.5,-0.5 L319.5,-0.5 L319.5,181.5 L-0.5,181.5 L-0.5,-0.5 Z" style="stroke:#323232;stroke-opacity:1;stroke-width:1;stroke-linejoin:miter;stroke-miterlimit:2;stroke-linecap:round;fill-rule:evenodd;fill:#000000;fill-opacity:1;"/>
        </g>
        <g id="Shape2">
            <desc shapeID="2" type="2" basicInfo-basicType="0" basicInfo-roundedRectRadius="12" basicInfo-polygonSides="6" basicInfo-starPoints="5" bounding="rect(-92,-25.5,184,51)" text="U N R E A L" font-familyName="Helvetica Neue" font-pixelSize="23" font-bold="0" font-underline="0" font-alignment="1" strokeStyle="0" markerStart="0" markerEnd="0" shadowEnabled="0" shadowOffsetX="0" shadowOffsetY="2" shadowBlur="4" shadowOpacity="160" blurEnabled="0" blurRadius="4" transform="matrix(1,0,0,1,159.5,91)" pers-center="0,0" pers-size="0,0" pers-start="0,0" pers-end="0,0" locked="0" mesh="" flag=""/>
            <path id="shapePath2" d="M113.107,93.4566 L113.107,82.9686 L110.922,82.9686 L110.922,93.4566 C110.922,94.9286 110.558,96.0441 109.83,96.8031 C109.101,97.5621 108.039,97.9416 106.644,97.9416 C105.172,97.9416 104.045,97.5621 103.263,96.8031 C102.481,96.0441 102.09,94.9286 102.09,93.4566 L102.09,82.9686 L99.9051,82.9686 L99.9051,93.4566 C99.9051,95.6493 100.499,97.2478 101.688,98.2521 C102.876,99.2565 104.528,99.7586 106.644,99.7586 C108.714,99.7586 110.309,99.2335 111.428,98.1831 C112.547,97.1328 113.107,95.5573 113.107,93.4566 M122.958,82.9686 L122.958,99.3906 L125.029,99.3906 L125.029,86.2116 L125.075,86.2116 L133.654,99.3906 L136.046,99.3906 L136.046,82.9686 L133.975,82.9686 L133.975,96.2856 L133.93,96.2856 L125.282,82.9686 L122.958,82.9686 M145.966,82.9686 L145.966,99.3906 L148.151,99.3906 L148.151,92.3756 L153.487,92.3756 C154.024,92.3756 154.453,92.4561 154.775,92.6171 C155.097,92.7781 155.358,92.9928 155.557,93.2611 C155.756,93.5295 155.902,93.8438 155.994,94.2041 C156.086,94.5645 156.163,94.944 156.224,95.3426 C156.301,95.7413 156.347,96.1476 156.362,96.5616 C156.377,96.9756 156.393,97.3628 156.408,97.7231 C156.423,98.0835 156.458,98.4093 156.511,98.7006 C156.565,98.992 156.669,99.222 156.822,99.3906 L159.26,99.3906 C159.03,99.1146 158.857,98.7965 158.742,98.4361 C158.627,98.0758 158.539,97.6963 158.478,97.2976 C158.417,96.899 158.378,96.4926 158.363,96.0786 C158.348,95.6646 158.325,95.2583 158.294,94.8596 C158.248,94.461 158.183,94.0776 158.098,93.7096 C158.014,93.3416 157.884,93.0081 157.707,92.7091 C157.531,92.4101 157.293,92.1533 156.994,91.9386 C156.695,91.724 156.308,91.5706 155.833,91.4786 L155.833,91.4326 C156.83,91.1566 157.554,90.643 158.006,89.8916 C158.459,89.1403 158.685,88.2663 158.685,87.2696 C158.685,85.9356 158.244,84.8853 157.362,84.1186 C156.481,83.352 155.258,82.9686 153.694,82.9686 L145.966,82.9686 M152.705,90.5356 L148.151,90.5356 L148.151,84.8086 L153.579,84.8086 C154.606,84.8086 155.35,85.0693 155.81,85.5906 C156.27,86.112 156.5,86.7866 156.5,87.6146 C156.5,88.2126 156.396,88.6995 156.189,89.0751 C155.982,89.4508 155.706,89.7498 155.361,89.9721 C155.016,90.1945 154.614,90.344 154.154,90.4206 C153.694,90.4973 153.211,90.5356 152.705,90.5356 M168.107,82.9686 L168.107,99.3906 L179.514,99.3906 L179.514,97.5506 L170.292,97.5506 L170.292,91.8696 L178.824,91.8696 L178.824,90.0296 L170.292,90.0296 L170.292,84.8086 L179.445,84.8086 L179.445,82.9686 L168.107,82.9686 M191.373,92.6056 L194.156,84.9466 L194.202,84.9466 L196.939,92.6056 L191.373,92.6056 M193.006,82.9686 L186.612,99.3906 L188.843,99.3906 L190.683,94.4456 L197.629,94.4456 L199.423,99.3906 L201.838,99.3906 L195.421,82.9686 L193.006,82.9686 M209.825,82.9686 L209.825,99.3906 L220.704,99.3906 L220.704,97.5506 L212.01,97.5506 L212.01,82.9686 L209.825,82.9686 Z" style="stroke:none;fill-rule:nonzero;fill:#464646;fill-opacity:1;"/>
        </g>
    </g>
</svg>
